<svg xmlns="http://www.w3.org/2000/svg" xmlns:xlink="http://www.w3.org/1999/xlink" width="500" zoomAndPan="magnify" viewBox="0 0 375 374.999991" height="500" preserveAspectRatio="xMidYMid meet" version="1.0"><defs><clipPath id="8e6bc06ec1"><path d="M 9.410156 60.9375 L 365.660156 60.9375 L 365.660156 328.6875 L 9.410156 328.6875 Z M 9.410156 60.9375 " clip-rule="nonzero"/></clipPath></defs><g clip-path="url(#8e6bc06ec1)"><path fill="#22c55e" d="M 193.1875 60.9375 C 267.09375 60.9375 326.988281 120.855469 326.988281 194.792969 C 326.988281 203.417969 326.171875 211.847656 324.605469 220.015625 L 122.480469 220.015625 C 132.832031 249.097656 160.558594 269.875 193.1875 269.875 C 214.9375 269.875 234.53125 260.628906 248.25 245.796875 L 327.28125 245.796875 C 330.417969 238.769531 337.4375 233.871094 345.601562 233.871094 C 356.675781 233.871094 365.621094 242.855469 365.621094 253.898438 C 365.621094 264.972656 356.675781 273.925781 345.601562 273.925781 C 337.4375 273.925781 330.417969 269.027344 327.28125 262 L 277.214844 262 C 275.550781 257.523438 271.238281 254.355469 266.210938 254.355469 C 259.679688 254.355469 254.421875 259.617188 254.421875 266.117188 C 254.421875 272.621094 259.679688 277.914062 266.210938 277.914062 C 271.238281 277.914062 275.550781 274.710938 277.214844 270.234375 L 303.734375 270.234375 C 279.632812 305.519531 239.105469 328.6875 193.1875 328.6875 C 119.28125 328.6875 59.351562 268.730469 59.351562 194.792969 C 59.351562 187.3125 59.972656 179.992188 61.179688 172.839844 L 165.066406 172.839844 C 170.097656 183.328125 180.808594 190.546875 193.1875 190.546875 C 210.398438 190.546875 224.34375 176.597656 224.34375 159.378906 C 224.34375 142.191406 210.398438 128.242188 193.1875 128.242188 C 180.808594 128.242188 170.097656 135.460938 165.066406 145.949219 L 55.53125 145.949219 C 51.808594 154.378906 43.347656 160.292969 33.519531 160.292969 C 20.226562 160.292969 9.449219 149.511719 9.449219 136.179688 C 9.449219 122.882812 20.226562 112.101562 33.519531 112.101562 C 43.347656 112.101562 51.808594 118.015625 55.53125 126.445312 L 106.316406 126.445312 C 108.175781 133.238281 114.382812 138.238281 121.761719 138.238281 C 130.613281 138.238281 137.765625 131.050781 137.765625 122.195312 C 137.765625 113.34375 130.613281 106.1875 121.761719 106.1875 C 114.382812 106.1875 108.175781 111.152344 106.316406 117.949219 L 83.617188 117.949219 C 107.816406 83.480469 147.855469 60.9375 193.1875 60.9375 Z M 193.1875 60.9375 " fill-opacity="1" fill-rule="evenodd"/></g></svg>